<svg xmlns="http://www.w3.org/2000/svg" xmlns:xlink="http://www.w3.org/1999/xlink" viewBox="0 0 335 118"><defs><linearGradient id="a" x1="60.84" x2="83.4" y1="50.19" y2="50.19" gradientTransform="matrix(1 0 0 -1 0 106)" gradientUnits="userSpaceOnUse"><stop offset="0" stop-color="#4a723a"/><stop offset="1" stop-color="#95bf46"/></linearGradient><linearGradient id="b" x1="109.4" x2="109.4" y1="26.6" y2="64.56" xlink:href="#a"/><linearGradient id="c" x1="141.39" x2="141.39" y1="27.28" y2="79.95" xlink:href="#a"/><linearGradient id="d" x1="179.29" x2="179.29" y1="26.53" y2="64.63" xlink:href="#a"/><linearGradient id="e" x1="213.85" x2="213.85" y1="12.61" y2="64.63" xlink:href="#a"/><linearGradient id="f" x1="247.91" x2="247.91" y1="68.29" y2="79.42" xlink:href="#a"/><linearGradient id="g" x1="242.53" x2="242.53" y1="27.28" y2="63.81" xlink:href="#a"/><linearGradient id="h" x1="267.58" x2="267.58" y1="27.28" y2="80.71" xlink:href="#a"/><linearGradient id="i" x1="293.45" x2="293.45" y1="10.69" y2="63.81" xlink:href="#a"/></defs><path fill="#95bf46" d="M74.13 24.93a.82.82 0 0 0-.74-.69l-6.32-.11s-5-4.89-5.53-5.39a2.06 2.06 0 0 0-1.85-.23l-2.53.78a17 17 0 0 0-1.21-3c-1.79-3.42-4.41-5.23-7.58-5.24h-.66l-.29-.33a6.67 6.67 0 0 0-5.27-2.13c-4.1.12-8.18 3.07-11.48 8.33a32.92 32.92 0 0 0-4.6 11.93L18 31.35c-2.37.74-2.44.82-2.75 3C15 36.05 8.8 84.07 8.8 84.07l52.05 9 22.56-5.61s-9.22-62.1-9.28-62.53zM54.56 20.1l-4 1.25a22.3 22.3 0 0 0-1.25-7.46c3.07.59 4.6 4.11 5.25 6.21zm-6.77 2.09l-8.69 2.69a20.94 20.94 0 0 1 4.41-8.52 8.73 8.73 0 0 1 3-2.14 19.36 19.36 0 0 1 1.28 7.97zm-5.57-10.81a4.11 4.11 0 0 1 2.46.65 11.77 11.77 0 0 0-3.17 2.48 23.87 23.87 0 0 0-5.39 11.3L29 28c1.38-6.56 6.89-16.44 13.22-16.62z"/><path fill="url(#a)" d="M73.39 24.24l-6.32-.11s-5-4.89-5.53-5.39a1.25 1.25 0 0 0-.7-.32v74.77l22.56-5.61s-9.21-62.22-9.27-62.65a.82.82 0 0 0-.74-.69z"/><path fill="#fff" d="M48.34 35.84l-2.62 9.8a15 15 0 0 0-6.39-1.11c-5.08.32-5.13 3.53-5.08 4.33.27 4.38 11.8 5.34 12.45 15.61.51 8.08-4.28 13.6-11.19 14a16.8 16.8 0 0 1-12.86-4.37l1.76-7.47s4.6 3.46 8.27 3.23a3.26 3.26 0 0 0 3.19-3.33v-.16C35.49 60.65 26.1 61 25.51 51.6 25 43.69 30.2 35.68 41.66 35c4.42-.28 6.68.84 6.68.84z"/><path fill="url(#b)" d="M114 56.76c-2.62-1.42-4-2.62-4-4.26 0-2.09 1.87-3.44 4.78-3.44a17.18 17.18 0 0 1 6.43 1.42l2.39-7.32s-2.2-1.72-8.67-1.72c-9 0-15.24 5.16-15.24 12.4 0 4.11 2.91 7.25 6.8 9.49 3.14 1.8 4.26 3.07 4.26 4.93s-1.57 3.51-4.49 3.51a20.24 20.24 0 0 1-8.44-2.24l-2.54 7.32a19.42 19.42 0 0 0 10.16 2.54c9.27 0 15.92-4.55 15.92-12.77 0-4.41-3.36-7.55-7.36-9.86z"/><path fill="url(#c)" d="M150.86 41.37A14 14 0 0 0 140 46.82l-.15-.07 4-20.7h-10.3l-10 52.67h10.31l3.43-18c1.35-6.8 4.86-11 8.15-11 2.31 0 3.21 1.56 3.21 3.81a23.17 23.17 0 0 1-.45 4.55l-3.92 20.62h10.23l4-21.29a37.89 37.89 0 0 0 .75-6.72c.05-5.81-3.02-9.32-8.4-9.32z"/><path fill="url(#d)" d="M182.62 41.37c-12.41 0-20.62 11.2-20.62 23.68 0 8 4.93 14.42 14.19 14.42 12.18 0 20.4-10.91 20.4-23.68 0-7.4-4.34-14.42-13.97-14.42zm-5.11 30.18c-3.52 0-5-3-5-6.72 0-5.9 3.06-15.54 8.67-15.54 3.66 0 4.85 3.14 4.85 6.2.02 6.35-3.03 16.06-8.52 16.06z"/><path fill="url(#e)" d="M223 41.37c-7 0-10.91 6.12-10.91 6.12h-.15l.61-5.49h-9.15c-.45 3.73-1.28 9.41-2.1 13.67l-7.17 37.72h10.31l2.84-15.24h.23a12 12 0 0 0 6.06 1.35c12.1 0 20-12.4 20-25 0-6.93-3.06-13.13-10.57-13.13zm-9.9 30.33a6.55 6.55 0 0 1-4.26-1.49l1.72-9.64c1.19-6.43 4.55-10.68 8.14-10.68 3.14 0 4.11 2.91 4.11 5.67 0 6.65-4 16.14-9.71 16.14z"/><path fill="url(#f)" d="M248.28 26.58a5.88 5.88 0 0 0-5.9 5.86v.14c0 3.07 2 5.16 4.86 5.16h.15a5.82 5.82 0 0 0 6.05-5.58v-.42a4.9 4.9 0 0 0-4.63-5.16z"/><path fill="url(#g)" d="M233.87 78.72h10.31l7.02-36.53h-10.39l-6.94 36.53z"/><path fill="url(#h)" d="M277.42 42.12h-7.17l.37-1.72c.6-3.51 2.69-6.65 6.13-6.65a10.76 10.76 0 0 1 3.28.52l2-8.07a13.7 13.7 0 0 0-5.6-.89 15.33 15.33 0 0 0-10.09 3.43c-3.51 3-5.15 7.32-6 11.66l-.3 1.72h-4.73l-1.5 7.77h4.78l-5.45 28.83h10.31l5.45-28.83h7.1z"/><path fill="url(#i)" d="M302.22 42.19s-6.44 16.24-9.34 25.1h-.14c-.2-2.85-2.54-25.1-2.54-25.1h-10.84l6.2 33.54a2.16 2.16 0 0 1-.22 1.72 17.55 17.55 0 0 1-5.6 6.2 22.75 22.75 0 0 1-5.83 2.92l2.84 8.74a23.57 23.57 0 0 0 10.08-5.61c4.71-4.4 9-11.2 13.53-20.47l12.62-27z"/></svg>